<svg width="120" height="120" viewBox="0 0 120 120" fill="none" xmlns="http://www.w3.org/2000/svg">
<path fill-rule="evenodd" clip-rule="evenodd" d="M93 4H7C5.34315 4 4 5.34315 4 7V93C4 94.6569 5.34315 96 7 96H93C94.6569 96 96 94.6569 96 93V7C96 5.34315 94.6569 4 93 4ZM7 0C3.13401 0 0 3.13401 0 7V93C0 96.866 3.13401 100 7 100H93C96.866 100 100 96.866 100 93V7C100 3.13401 96.866 0 93 0H7Z" fill="#3EC28F"/>
<path fill-rule="evenodd" clip-rule="evenodd" d="M20 100V113C20 116.866 23.134 120 27 120H113C116.866 120 120 116.866 120 113V27C120 23.134 116.866 20 113 20H100V24H113C114.657 24 116 25.3431 116 27V113C116 114.657 114.657 116 113 116H27C25.3431 116 24 114.657 24 113V100H20Z" fill="#3EC28F"/>
<path d="M46.459 29.2C46.459 31.2473 46.1136 33.1713 45.423 34.972C44.7323 36.748 43.7703 38.3143 42.537 39.671C41.3036 41.003 39.8236 42.0637 38.097 42.853C36.395 43.6177 34.5326 44 32.51 44H20.152V14.4H32.51C34.5326 14.4 36.395 14.7947 38.097 15.584C39.8236 16.3733 41.3036 17.434 42.537 18.766C43.7703 20.098 44.7323 21.6643 45.423 23.465C46.1136 25.2657 46.459 27.1773 46.459 29.2ZM40.65 29.052C40.6746 27.6707 40.465 26.3633 40.021 25.13C39.577 23.8967 38.9356 22.8237 38.097 21.911C37.2583 20.9737 36.2223 20.246 34.989 19.728C33.7803 19.1853 32.4113 18.914 30.882 18.914H25.887V39.116H30.882C32.3866 39.116 33.731 38.8693 34.915 38.376C36.1236 37.858 37.1473 37.155 37.986 36.267C38.8246 35.3543 39.466 34.2937 39.91 33.085C40.3786 31.8517 40.6253 30.5073 40.65 29.052Z" fill="#3EC28F"/>
<path d="M78.727 44H59.191V14.437H78.727V19.173H64.815V26.24H78.542V30.865H64.815V39.005H78.727V44Z" fill="#3EC28F"/>
<path d="M45.9349 56.4L34.7239 86H29.4699L17.9999 56.4H24.3639L32.0599 77.194L39.6449 56.4H45.9349Z" fill="#3EC28F"/>
<path d="M79.6584 86H73.3314L71.2224 79.266C71.0004 78.526 70.7167 77.8477 70.3714 77.231C70.0507 76.6143 69.656 76.084 69.1874 75.64C68.7187 75.196 68.1514 74.8507 67.4854 74.604C66.844 74.3573 66.0794 74.234 65.1914 74.234H63.0454V86H57.3844V56.437L69.0764 56.4C70.3344 56.4 71.506 56.622 72.5914 57.066C73.6767 57.4853 74.614 58.0773 75.4034 58.842C76.1927 59.6067 76.8094 60.507 77.2534 61.543C77.6974 62.579 77.9194 63.7013 77.9194 64.91C77.9194 65.7733 77.7837 66.612 77.5124 67.426C77.241 68.24 76.8587 68.9923 76.3654 69.683C75.872 70.3737 75.28 70.9903 74.5894 71.533C73.9234 72.051 73.1834 72.4457 72.3694 72.717C73.3067 73.0623 74.0714 73.568 74.6634 74.234C75.2554 74.8753 75.724 75.6523 76.0694 76.565C76.242 76.9843 76.4024 77.4037 76.5504 77.823C76.6984 78.2423 76.8464 78.6863 76.9944 79.155C77.167 79.599 77.3397 80.0923 77.5124 80.635C77.7097 81.153 77.9194 81.7327 78.1414 82.374C78.4127 83.188 78.6594 83.891 78.8814 84.483C79.128 85.0503 79.387 85.556 79.6584 86ZM72.1474 65.317C72.1474 64.6263 72.0117 63.9973 71.7404 63.43C71.4937 62.8627 71.1484 62.3693 70.7044 61.95C70.2604 61.5307 69.73 61.21 69.1134 60.988C68.5214 60.7413 67.88 60.618 67.1894 60.618H63.0454V69.831H67.1894C67.88 69.831 68.5214 69.7323 69.1134 69.535C69.73 69.313 70.2604 69.0047 70.7044 68.61C71.1484 68.2153 71.4937 67.7467 71.7404 67.204C72.0117 66.6367 72.1474 66.0077 72.1474 65.317Z" fill="#3EC28F"/>
<path fill-rule="evenodd" clip-rule="evenodd" d="M95.2928 1.87863C96.0739 1.09758 97.3402 1.09758 98.1212 1.87863L118.344 22.1019C119.126 22.8829 119.126 24.1493 118.344 24.9303C117.563 25.7114 116.297 25.7114 115.516 24.9303L95.2928 4.70706C94.5118 3.92601 94.5118 2.65968 95.2928 1.87863Z" fill="#3EC28F"/>
<path fill-rule="evenodd" clip-rule="evenodd" d="M2.29282 95.8786C3.07387 95.0976 4.3402 95.0976 5.12124 95.8786L25.3445 116.102C26.1255 116.883 26.1255 118.149 25.3445 118.93C24.5634 119.711 23.2971 119.711 22.5161 118.93L2.29282 98.7071C1.51177 97.926 1.51177 96.6597 2.29282 95.8786Z" fill="#3EC28F"/>
</svg>
