<svg width="350" height="100" viewBox="0 0 350 100" fill="none" xmlns="http://www.w3.org/2000/svg">
<path fill-rule="evenodd" clip-rule="evenodd" d="M323 4H7C5.34314 4 4 5.34315 4 7V73C4 74.6569 5.34314 76 6.99999 76H323C324.657 76 326 74.6569 326 73V7C326 5.34314 324.657 4 323 4ZM7 0C3.13401 0 0 3.13401 0 7V73C0 76.866 3.134 80 6.99999 80H323C326.866 80 330 76.866 330 73V7C330 3.13401 326.866 0 323 0H7Z" fill="#39BA88"/>
<path fill-rule="evenodd" clip-rule="evenodd" d="M20 80V93C20 96.866 23.134 100 27 100H343C346.866 100 350 96.866 350 93V27C350 23.134 346.866 20 343 20H326.9V24H343C344.657 24 346 25.3431 346 27V93C346 94.6569 344.657 96 343 96H27C25.3431 96 24 94.6569 24 93V80H20Z" fill="#39BA88"/>
<path fill-rule="evenodd" clip-rule="evenodd" d="M325.296 1.87863C326.077 1.09758 327.343 1.09758 328.124 1.87863L348.347 22.1019C349.128 22.8829 349.128 24.1493 348.347 24.9303C347.566 25.7114 346.3 25.7114 345.519 24.9303L325.296 4.70706C324.515 3.92601 324.515 2.65968 325.296 1.87863Z" fill="#39BA88"/>
<path fill-rule="evenodd" clip-rule="evenodd" d="M2.29282 75.8786C3.07387 75.0976 4.3402 75.0976 5.12124 75.8786L25.3445 96.1019C26.1255 96.8829 26.1255 98.1493 25.3445 98.9303C24.5634 99.7114 23.2971 99.7114 22.5161 98.9303L2.29282 78.7071C1.51177 77.926 1.51177 76.6597 2.29282 75.8786Z" fill="#39BA88"/>
<path d="M48.5056 38.2C48.5056 40.2473 48.1603 42.1713 47.4697 43.972C46.779 45.748 45.817 47.3143 44.5836 48.671C43.3503 50.003 41.8703 51.0637 40.1436 51.853C38.4416 52.6177 36.5793 53 34.5566 53H22.1986V23.4H34.5566C36.5793 23.4 38.4416 23.7947 40.1436 24.584C41.8703 25.3733 43.3503 26.434 44.5836 27.766C45.817 29.098 46.779 30.6643 47.4697 32.465C48.1603 34.2657 48.5056 36.1773 48.5056 38.2ZM42.6966 38.052C42.7213 36.6707 42.5117 35.3633 42.0676 34.13C41.6236 32.8967 40.9823 31.8237 40.1436 30.911C39.305 29.9737 38.269 29.246 37.0356 28.728C35.827 28.1853 34.458 27.914 32.9286 27.914H27.9336V48.116H32.9286C34.4333 48.116 35.7776 47.8693 36.9617 47.376C38.1703 46.858 39.194 46.155 40.0326 45.267C40.8713 44.3543 41.5126 43.2937 41.9566 42.085C42.4253 40.8517 42.672 39.5073 42.6966 38.052Z" fill="#39BA88"/>
<path d="M78.7737 53H59.2377V23.437H78.7737V28.173H64.8617V35.24H78.5887V39.865H64.8617V48.005H78.7737V53Z" fill="#39BA88"/>
<path d="M115.05 23.4L103.839 53H98.5849L87.1149 23.4H93.4789L101.175 44.194L108.76 23.4H115.05Z" fill="#39BA88"/>
<path d="M146.773 53H140.446L138.337 46.266C138.115 45.526 137.832 44.8477 137.486 44.231C137.166 43.6143 136.771 43.084 136.302 42.64C135.834 42.196 135.266 41.8507 134.6 41.604C133.959 41.3573 133.194 41.234 132.306 41.234H130.16V53H124.499V23.437L136.191 23.4C137.449 23.4 138.621 23.622 139.706 24.066C140.792 24.4853 141.729 25.0773 142.518 25.842C143.308 26.6067 143.924 27.507 144.368 28.543C144.812 29.579 145.034 30.7013 145.034 31.91C145.034 32.7733 144.899 33.612 144.627 34.426C144.356 35.24 143.974 35.9923 143.48 36.683C142.987 37.3737 142.395 37.9903 141.704 38.533C141.038 39.051 140.298 39.4457 139.484 39.717C140.422 40.0623 141.186 40.568 141.778 41.234C142.37 41.8753 142.839 42.6523 143.184 43.565C143.357 43.9843 143.517 44.4037 143.665 44.823C143.813 45.2423 143.961 45.6863 144.109 46.155C144.282 46.599 144.455 47.0923 144.627 47.635C144.825 48.153 145.034 48.7327 145.256 49.374C145.528 50.188 145.774 50.891 145.996 51.483C146.243 52.0503 146.502 52.556 146.773 53ZM139.262 32.317C139.262 31.6263 139.127 30.9973 138.855 30.43C138.609 29.8627 138.263 29.3693 137.819 28.95C137.375 28.5307 136.845 28.21 136.228 27.988C135.636 27.7413 134.995 27.618 134.304 27.618H130.16V36.831H134.304C134.995 36.831 135.636 36.7323 136.228 36.535C136.845 36.313 137.375 36.0047 137.819 35.61C138.263 35.2153 138.609 34.7467 138.855 34.204C139.127 33.6367 139.262 33.0077 139.262 32.317Z" fill="#39BA88"/>
<path d="M176.124 53H156.588V23.437H176.124V28.173H162.212V35.24H175.939V39.865H162.212V48.005H176.124V53Z" fill="#39BA88"/>
<path d="M212.4 23.4L201.189 53H195.935L184.465 23.4H190.829L198.525 44.194L206.11 23.4H212.4Z" fill="#39BA88"/>
<path d="M227.585 53H221.85V23.437H227.585V53Z" fill="#39BA88"/>
<path d="M258.949 53H239.413V23.437H258.949V28.173H245.037V35.24H258.764V39.865H245.037V48.005H258.949V53Z" fill="#39BA88"/>
<path d="M307.509 23.4L297.889 53H292.857L287.418 34.722L281.942 53H276.91L267.29 23.4H273.358L279.611 42.529L285.013 23.4H289.749L295.151 42.566L301.478 23.4H307.509Z" fill="#39BA88"/>
</svg>
